# xmcd CD database file
#
# Track frame offsets:
#	180
#	23944
#	51451
#	73842
#	95973
#	143557
#	169822
#	196232
#	224431
#	245771
#
# Disc length: 3421 seconds
#
# Revision: 0
# Processed by: cddbd v1.5.1PL2 Copyright (c) Steve Scherf et al.
# Submitted via: CDex 1.51
#
DISCID=9f0d5b0a
DTITLE=John Kanady - South 61
DYEAR=1900
DGENRE=Jazz
TTITLE0=Sweet Meat
TTITLE1=Day's sleepers lament
TTITLE2=This ain'your monkey
TTITLE3=Top shelf night
TTITLE4=Be my baby dool
TTITLE5=Crazy women
TTITLE6=Ciao for now
TTITLE7=The wind is a wanderer
TTITLE8=Born to play the blues
TTITLE9=The heat
EXTD=
EXTT0=
EXTT1=
EXTT2=
EXTT3=
EXTT4=
EXTT5=
EXTT6=
EXTT7=
EXTT8=
EXTT9=
PLAYORDER=
